<svg width="32" height="32" viewBox="0 0 32 32" fill="none" xmlns="http://www.w3.org/2000/svg">
<g clip-path="url(#clip0_356_3)">
<path fill-rule="evenodd" clip-rule="evenodd" d="M16 0C24.8372 0 32 7.16282 32 16C32 24.8372 24.8372 32 16 32C7.16282 32 0 24.8372 0 16C0 7.16282 7.16282 0 16 0Z" fill="#F0B90B"/>
<path d="M8.79379 15.9999L8.80532 20.2307L12.4002 22.3461V24.823L6.70148 21.4807V14.7627L8.79379 15.9999ZM8.79379 11.7692V14.2345L6.7002 12.9961V10.5307L8.79379 9.29224L10.8976 10.5307L8.79379 11.7692ZM13.9015 10.5307L15.9951 9.29224L18.0989 10.5307L15.9951 11.7692L13.9015 10.5307Z" fill="white"/>
<path d="M10.3066 19.3538V16.8769L12.4002 18.1153V20.5807L10.3066 19.3538ZM13.9015 23.2333L15.9951 24.4717L18.0989 23.2333V25.6986L15.9951 26.9371L13.9015 25.6986V23.2333ZM21.1015 10.5307L23.1951 9.29224L25.2989 10.5307V12.9961L23.1951 14.2345V11.7692L21.1015 10.5307ZM23.1951 20.2307L23.2066 15.9999L25.3002 14.7615V21.4794L19.6015 24.8217V22.3448L23.1951 20.2307Z" fill="white"/>
<path d="M21.6932 19.3539L19.5996 20.5808V18.1154L21.6932 16.877V19.3539Z" fill="white"/>
<path d="M21.6938 12.6461L21.7054 15.123L18.1002 17.2384V21.4794L16.0066 22.7063L13.913 21.4794V17.2384L10.3079 15.123V12.6461L12.4105 11.4076L15.9938 13.5333L19.5989 11.4076L21.7028 12.6461H21.6938ZM10.3066 8.41659L15.9951 5.06274L21.6938 8.41659L19.6002 9.65505L15.9951 7.52941L12.4002 9.65505L10.3066 8.41659Z" fill="white"/>
</g>
<defs>
<clipPath id="clip0_356_3">
<rect width="32" height="32" fill="white"/>
</clipPath>
</defs>
</svg>
